PathFileType	4	(X/Y/Z)	RBDS025static.trc
DataRate	CameraRate	NumFrames	NumMarkers	Units	OrigDataRate	OrigDataStartFrame	OrigNumFrames
150.000000	150.000000	4	48	mm	150.000000	93	150
Frame#	Time	L.Ankle			L.Ankle.Medial			L.ASIS			L.GTR			L.Heel.Bottom			L.Heel.Lateral			L.Heel.Top			L.HF			L.Iliac.Crest			L.Knee			L.Knee.Medial			L.MT1			L.MT2			L.MT5			L.PSIS			L.Shank.Bottom.Lateral			L.Shank.Bottom.Medial			L.Shank.Top.Lateral			L.Shank.Top.Medial			L.Thigh.Bottom.Lateral			L.Thigh.Bottom.Medial			L.Thigh.Top.Lateral			L.Thigh.Top.Medial			L.TT			R.Ankle			R.Ankle.Medial			R.ASIS			R.GTR			R.Heel.Bottom			R.Heel.Lateral			R.Heel.Top			R.HF			R.Iliac.Crest			R.Knee			R.Knee.Medial			R.MT1			R.MT2			R.MT5			R.PSIS			R.Shank.Bottom.Lateral			R.Shank.Bottom.Medial			R.Shank.Top.Lateral			R.Shank.Top.Medial			R.Thigh.Bottom.Lateral			R.Thigh.Bottom.Medial			R.Thigh.Top.Lateral			R.Thigh.Top.Medial			R.TT			
		X1	Y1	Z1	X2	Y2	Z2	X3	Y3	Z3	X4	Y4	Z4	X5	Y5	Z5	X6	Y6	Z6	X7	Y7	Z7	X8	Y8	Z8	X9	Y9	Z9	X10	Y10	Z10	X11	Y11	Z11	X12	Y12	Z12	X13	Y13	Z13	X14	Y14	Z14	X15	Y15	Z15	X16	Y16	Z16	X17	Y17	Z17	X18	Y18	Z18	X19	Y19	Z19	X20	Y20	Z20	X21	Y21	Z21	X22	Y22	Z22	X23	Y23	Z23	X24	Y24	Z24	X25	Y25	Z25	X26	Y26	Z26	X27	Y27	Z27	X28	Y28	Z28	X29	Y29	Z29	X30	Y30	Z30	X31	Y31	Z31	X32	Y32	Z32	X33	Y33	Z33	X34	Y34	Z34	X35	Y35	Z35	X36	Y36	Z36	X37	Y37	Z37	X38	Y38	Z38	X39	Y39	Z39	X40	Y40	Z40	X41	Y41	Z41	X42	Y42	Z42	X43	Y43	Z43	X44	Y44	Z44	X45	Y45	Z45	X46	Y46	Z46	X47	Y47	Z47	X48	Y48	Z48	

94	0.62	697.9959716796875	100.406852722168	1055.621826171875	735.5628051757813	114.502799987793	1130.644775390625	844.5446166992188	967.9255981445313	1126.751953125	758.8106079101563	889.1561279296875	1069.110717773438	638.4173583984375	40.80474090576172	1097.116455078125	663.9845581054688	62.18093109130859	1052.981567382813	647.9868774414063	85.06020355224609	1097.147216796875	714.5362548828125	450.6732482910156	1044.425170898438	761.8017578125	1033.363525390625	1074.538696289063	731.483154296875	515.2776489257813	1053.898193359375	728.9793090820313	494.052490234375	1174.58935546875	846.915283203125	56.01747512817383	1130.12841796875	859.1168212890625	68.36347961425781	1083.175170898438	818.0093383789063	49.9644775390625	1018.240905761719	677.8929443359375	1012.195190429688	1178.904174804688	712.402587890625	198.0845336914063	1042.906860351563	665.3552856445313	199.1202087402344	1073.3623046875	706.6702880859375	277.8391723632813	1033.27197265625	660.6670532226563	279.4725036621094	1061.621704101563	736.993896484375	631.591064453125	1043.988891601563	678.2191162109375	626.4185180664063	1086.723754882813	728.0613403320313	740.607666015625	1046.200439453125	675.8282470703125	735.5790405273438	1092.324462890625	774.0799560546875	419.2166442871094	1088.053833007813	697.7591552734375	103.0662994384766	1409.05126953125	732.0760498046875	118.8662796020508	1330.404052734375	849.4389038085938	982.7063598632813	1335.677734375	772.0054931640625	898.0888061523438	1403.185791015625	635.2689208984375	40.90751647949219	1366.207763671875	661.7037963867188	62.50048065185547	1407.247802734375	643.4370727539063	85.29086303710938	1366.493041992188	730.8385009765625	456.3907165527344	1425.527587890625	782.6936645507813	1042.659545898438	1374.3857421875	738.0992431640625	522.049072265625	1417.031127929688	734.8734741210938	503.49560546875	1295.27734375	846.4119873046875	57.18017578125	1329.461669921875	857.4021606445313	69.40086364746094	1372.644775390625	818.3338623046875	47.48447418212891	1440.7060546875	681.37841796875	1019.0771484375	1276.994995117188	703.3319091796875	202.8053131103516	1422.875	662.4432983398438	205.9037170410156	1391.974487304688	698.9586791992188	286.9941711425781	1434.132446289063	656.7534790039063	286.0096740722656	1401.644775390625	736.213623046875	627.9595336914063	1424.010375976563	677.3260498046875	627.7130126953125	1382.89697265625	733.0147094726563	738.70263671875	1425.238403320313	677.2493286132813	737.804443359375	1385.228881835938	780.33935546875	431.6122131347656	1373.251831054688	
95	0.6266666666666667	697.99853515625	100.3938903808594	1055.625732421875	735.565185546875	114.5051727294922	1130.649658203125	844.5564575195313	967.9005126953125	1126.750244140625	758.8324584960938	889.1452026367188	1069.113647460938	638.4073486328125	40.81169128417969	1097.113037109375	663.9859008789063	62.17427062988281	1052.97998046875	647.99755859375	85.03594207763672	1097.12939453125	714.5269165039063	450.6633911132813	1044.425537109375	761.8394165039063	1033.345825195313	1074.553100585938	731.4893798828125	515.2726440429688	1053.904296875	729.0115356445313	494.049072265625	1174.588500976563	846.9332275390625	56.00845718383789	1130.127197265625	859.1156005859375	68.35350799560547	1083.162231445313	818.0133666992188	49.95187759399414	1018.235656738281	677.91552734375	1012.176818847656	1178.9189453125	712.4078369140625	198.0745544433594	1042.904174804688	665.3674926757813	199.1065826416016	1073.364868164063	706.6650390625	277.8250427246094	1033.265991210938	660.67529296875	279.4567565917969	1061.6181640625	737.017333984375	631.5699462890625	1043.986938476563	678.2323608398438	626.4083251953125	1086.735229492188	728.0714721679688	740.5928955078125	1046.21533203125	675.8515625	735.568359375	1092.330200195313	773.7376708984375	419.2426147460938	1088.208374023438	697.7543334960938	103.0578231811523	1409.054565429688	732.0782470703125	118.8506164550781	1330.391723632813	849.4664306640625	982.7041625976563	1335.688232421875	772.0388793945313	898.080810546875	1403.189331054688	635.2689819335938	40.90274810791016	1366.202880859375	661.7050170898438	62.50081634521484	1407.252075195313	643.4362182617188	85.28113555908203	1366.489990234375	730.837646484375	456.3856506347656	1425.530639648438	782.7243041992188	1042.664428710938	1374.396240234375	738.1150512695313	522.0479125976563	1417.040161132813	734.872802734375	503.4902954101563	1295.279174804688	846.4063720703125	57.17968368530273	1329.44384765625	857.40380859375	69.38848876953125	1372.626098632813	818.3418579101563	47.46526336669922	1440.692749023438	681.4014282226563	1019.079406738281	1277.005859375	703.337158203125	202.7935638427734	1422.875366210938	662.447509765625	205.8946228027344	1391.97412109375	698.9699096679688	286.993408203125	1434.131225585938	656.7516479492188	286.0140075683594	1401.645385742188	736.2244262695313	627.9598388671875	1424.021118164063	677.3326416015625	627.7074584960938	1382.919067382813	733.0347290039063	738.6912841796875	1425.247436523438	677.2601928710938	737.8020629882813	1385.249877929688	780.3505859375	431.6065063476563	1373.240966796875	
96	0.6333333333333334	698.0160522460938	100.3564987182617	1055.613525390625	735.5703735351563	114.4926071166992	1130.647338867188	844.56689453125	967.8682250976563	1126.7373046875	758.8448486328125	889.1182250976563	1069.121337890625	638.412353515625	40.80019760131836	1097.117431640625	664.0040893554688	62.1381721496582	1052.976196289063	648.0136108398438	85.00779724121094	1097.118530273438	714.5238037109375	450.6310729980469	1044.417114257813	761.8472290039063	1033.314453125	1074.553833007813	731.5017700195313	515.247314453125	1053.896484375	729.0043334960938	494.0473022460938	1174.59619140625	846.7989501953125	56.0654296875	1130.170654296875	859.2407836914063	68.90978240966797	1083.579223632813	818.0051879882813	49.93204116821289	1018.218200683594	677.9366455078125	1012.153442382813	1178.926025390625	712.410888671875	198.0667724609375	1042.90234375	665.373046875	199.0810241699219	1073.357666015625	706.7096557617188	277.7836608886719	1033.272705078125	660.6879272460938	279.4299621582031	1061.613403320313	737.0248413085938	631.5457153320313	1043.99365234375	678.2554321289063	626.3802490234375	1086.733764648438	728.0942993164063	740.5699462890625	1046.223754882813	675.8682250976563	735.540771484375	1092.329467773438	773.7315063476563	419.1811828613281	1088.179443359375	697.7592163085938	103.0614852905273	1409.046630859375	732.0790405273438	118.8189849853516	1330.386474609375	849.4805908203125	982.6993408203125	1335.691284179688	772.0469970703125	898.085693359375	1403.203979492188	635.2655029296875	40.89875030517578	1366.206176757813	661.7048950195313	62.49885940551758	1407.251220703125	643.4321899414063	85.27822875976563	1366.493774414063	730.834228515625	456.3859252929688	1425.539794921875	782.7521362304688	1042.661376953125	1374.3974609375	738.115966796875	522.0452880859375	1417.038330078125	734.8637084960938	503.4976501464844	1295.280395507813	846.4134521484375	57.15323638916016	1329.438354492188	857.4008178710938	69.37608337402344	1372.606811523438	818.3493041992188	47.43839263916016	1440.67529296875	681.4185791015625	1019.081298828125	1277.012817382813	703.3350219726563	202.7910003662109	1422.88525390625	662.4400634765625	205.8954925537109	1391.978515625	698.9673461914063	286.9891662597656	1434.134765625	656.7550659179688	286.0079040527344	1401.657470703125	736.2362670898438	627.9466552734375	1424.021606445313	677.336669921875	627.70068359375	1382.928344726563	733.059326171875	738.682861328125	1425.255249023438	677.2742309570313	737.7933959960938	1385.26611328125	780.3438720703125	431.5714111328125	1373.231201171875	
97	0.64	698.0086059570313	100.3303756713867	1055.594360351563	735.5626220703125	114.4900741577148	1130.64794921875	844.5794677734375	967.8311767578125	1126.715942382813	758.8660888671875	889.0923461914063	1069.115600585938	638.4105834960938	40.79911041259766	1097.117309570313	664.0166625976563	62.11125946044922	1052.953979492188	648.0220336914063	84.97034454345703	1097.095947265625	714.5516357421875	450.5998840332031	1044.42041015625	761.8718872070313	1033.295043945313	1074.5546875	731.51318359375	515.2176513671875	1053.884643554688	729.0263061523438	494.0389099121094	1174.587646484375	846.8014526367188	56.05277633666992	1130.165771484375	859.237548828125	68.88392639160156	1083.555541992188	818.006591796875	49.90739059448242	1018.2060546875	677.9733276367188	1012.127685546875	1178.929321289063	712.4203491210938	198.0402526855469	1042.885620117188	665.3900756835938	199.05517578125	1073.34130859375	706.7337646484375	277.75439453125	1033.2744140625	660.7097778320313	279.3949279785156	1061.590087890625	737.042724609375	631.5223388671875	1043.991333007813	678.2797241210938	626.3633422851563	1086.735229492188	728.1197509765625	740.5468139648438	1046.2255859375	675.8932495117188	735.523681640625	1092.335571289063	773.7158203125	419.1127014160156	1088.138305664063	697.7466430664063	103.0515670776367	1409.0576171875	732.083984375	118.7965469360352	1330.375854492188	849.5023193359375	982.7025756835938	1335.685546875	772.0718994140625	898.0761108398438	1403.206787109375	635.2689208984375	40.89566421508789	1366.203735351563	661.7044677734375	62.49245071411133	1407.26025390625	643.4282836914063	85.2742919921875	1366.49169921875	730.8273315429688	456.3936157226563	1425.538330078125	782.779541015625	1042.664306640625	1374.410522460938	738.1123657226563	522.0375366210938	1417.042724609375	734.8783569335938	503.511474609375	1295.286499023438	846.4230346679688	57.09833526611328	1329.427978515625	857.4210815429688	69.35008239746094	1372.577026367188	818.350830078125	47.41807556152344	1440.670776367188	681.4447631835938	1019.077758789063	1277.021850585938	703.3391723632813	202.7903289794922	1422.878662109375	662.4419555664063	205.8965911865234	1391.974487304688	698.965576171875	286.9805603027344	1434.137573242188	656.7549438476563	286.0074462890625	1401.649658203125	736.2467041015625	627.9432983398438	1424.03271484375	677.3465576171875	627.705810546875	1382.945678710938	733.0692138671875	738.6821899414063	1425.262573242188	677.2843627929688	737.8046875	1385.273071289063	780.3449096679688	431.5239562988281	1373.203857421875	
